<svg viewBox="0 0 2048 1536" xmlns="http://www.w3.org/2000/svg" fill-rule="evenodd" clip-rule="evenodd" stroke-linejoin="round" stroke-miterlimit="2"><path fill="#f3f4f6" d="M0 0h2048v1536H0z"/><path d="M1389.624 416h-731.25C611.776 416 574 455.398 574 504v527.999c0 48.602 37.775 88 84.375 88h731.249c46.6 0 84.375-39.398 84.375-88V504c0-48.602-37.776-88-84.375-88zM1417.749 1032c0 16.174-12.618 29.333-28.125 29.333h-731.25c-15.507 0-28.124-13.16-28.124-29.333V504c0-16.174 12.617-29.333 28.125-29.333h731.249c15.507 0 28.125 13.16 28.125 29.333v527.999zm-646.874-308c54.365 0 98.437-45.965 98.437-102.666 0-56.701-44.072-102.666-98.437-102.666-54.366 0-98.438 45.965-98.438 102.666 0 56.701 44.072 102.667 98.438 102.667zm0-146.666c23.263 0 42.187 19.738 42.187 44s-18.924 44-42.187 44c-23.263 0-42.188-19.738-42.188-44s18.925-44 42.188-44zm363.917 42.22L967.75 793.774l-54.543-56.886c-16.476-17.184-43.187-17.184-59.661 0L698.857 898.22c-7.908 8.248-12.357 19.446-12.357 31.112v51.333c0 12.15 9.445 22 21.094 22h632.811c11.65 0 21.094-9.85 21.094-22V811.999c0-11.669-4.446-22.861-12.356-31.113l-154.687-161.333c-16.476-17.182-43.188-17.182-59.664 0zm170.457 324.446h-562.5v-8.59l140.626-146.667 84.374 88 196.875-205.333 140.625 146.666V944z" fill="#d1d5db" fill-rule="nonzero"/></svg>